<?xml version="1.0" encoding="utf-8"?>
<!-- Generator: Adobe Illustrator 28.3.0, SVG Export Plug-In . SVG Version: 6.00 Build 0)  -->
<svg version="1.1" id="Layer_1" xmlns="http://www.w3.org/2000/svg" xmlns:xlink="http://www.w3.org/1999/xlink" x="0px" y="0px"
	 viewBox="0 0 685 248.2" style="enable-background:new 0 0 685 248.2;" xml:space="preserve">
<style type="text/css">
	.st0{fill:#FF0039;}
</style>
<g>
	<path class="st0" d="M59.8,39.5c0-3.6-2-4.3-4.4-2.9L7.7,64.2c-3.2,1.8-4.4,4.9-4.4,7.9v136.6c0,3.6,2,4.3,4.4,2.9L55.4,184
		c3.2-1.8,4.4-4.9,4.4-7.9V39.5z"/>
	<path class="st0" d="M116.2,128.9v-74h17.9v39.9c5.9-7.3,15.5-12.2,26.9-12.2c21.8,0,39.3,17.3,39.3,41.6v5.4
		c0,24-17.8,41.4-42.4,41.4C134.6,170.9,116.2,155.3,116.2,128.9L116.2,128.9z M182.3,129.2v-4.4c0-16-9.5-26.2-24.1-26.2
		c-14.7,0-24.1,10.3-24.1,26.2v4.4c0,15.7,9.5,25.7,24.1,25.7C172.9,155,182.3,144.5,182.3,129.2z"/>
	<path class="st0" d="M223.9,52.9c6.5,0,11.4,4.1,11.4,10.3v1.1c0,6.2-4.9,10.3-11.4,10.3s-11.6-4.1-11.6-10.3v-1.1
		C212.3,57,217.4,52.9,223.9,52.9z M232.9,169H215V84.6h17.9V169z"/>
	<path class="st0" d="M313.8,128.9v-74h17.9v39.9c5.9-7.3,15.5-12.2,26.9-12.2c21.8,0,39.3,17.3,39.3,41.6v5.4
		c0,24-17.8,41.4-42.4,41.4C332.2,170.9,313.8,155.3,313.8,128.9L313.8,128.9z M379.9,129.2v-4.4c0-16-9.5-26.2-24.1-26.2
		c-14.7,0-24.1,10.3-24.1,26.2v4.4c0,15.7,9.5,25.7,24.1,25.7C370.5,155,379.9,144.5,379.9,129.2z"/>
	<path class="st0" d="M303.6,86l-4.2,16.3c-3.3-1.5-6.5-2.4-10.4-2.4c-11.4,0-20,8.8-20,23.5V169H251V84.6h17.9v11.7
		c4.9-9.9,13-13.7,21.8-13.7C295.6,82.6,300,83.7,303.6,86L303.6,86z"/>
	<path class="st0" d="M409.1,129.5V124c0-24.1,17.4-41.4,39.3-41.4c11.4,0,21,4.9,26.9,12.2V84.6h17.9V169h-17.9v-10.3
		c-5.9,7.3-15.5,12.2-26.9,12.2C426.5,170.9,409.1,153.7,409.1,129.5z M475.3,128.7v-3.9c0-16-9.3-26.2-24-26.2
		c-14.7,0-24,10.3-24,26.2v3.9c0,16,9.3,26.2,24,26.2C466,155,475.3,144.7,475.3,128.7z"/>
	<path class="st0" d="M529,120.3V169h-17.9V84.6H529v10.6c4.4-6.5,12.4-12.5,24.8-12.5c19.1,0,31.6,13.5,31.6,36.3v50h-17.9v-48.9
		c0-14.2-7-21.5-18.4-21.5C538.3,98.6,529,106.7,529,120.3L529,120.3L529,120.3z"/>
	<path class="st0" d="M621,169h-17.9V54.9H621v65.8l34.1-36.2h23.3l-33.9,34.2l37.2,50.2h-22l-27.4-38L621,142.3L621,169L621,169z"
		/>
</g>
</svg>
