<svg width="20" height="20" viewBox="0 0 20 20" fill="none" xmlns="http://www.w3.org/2000/svg">
<path d="M10 0C8.02219 0 6.08879 0.586489 4.4443 1.6853C2.79981 2.78412 1.51809 4.3459 0.761209 6.17316C0.00433277 8.00043 -0.1937 10.0111 0.192152 11.9509C0.578004 13.8907 1.53041 15.6725 2.92894 17.0711C4.32746 18.4696 6.10929 19.422 8.0491 19.8078C9.98891 20.1937 11.9996 19.9957 13.8268 19.2388C15.6541 18.4819 17.2159 17.2002 18.3147 15.5557C19.4135 13.9112 20 11.9778 20 10C19.997 7.34875 18.9425 4.80695 17.0678 2.93224C15.193 1.05752 12.6512 0.00299199 10 0ZM14.0532 13.2334C14.1078 13.2871 14.1512 13.351 14.1809 13.4216C14.2106 13.4921 14.226 13.5678 14.2263 13.6443C14.2266 13.7209 14.2118 13.7967 14.1826 13.8674C14.1535 13.9382 14.1106 14.0025 14.0565 14.0566C14.0024 14.1107 13.9381 14.1535 13.8673 14.1827C13.7966 14.2118 13.7207 14.2266 13.6442 14.2263C13.5677 14.226 13.492 14.2105 13.4214 14.1808C13.3509 14.1511 13.287 14.1077 13.2333 14.0531L10 10.8198L6.76667 14.0531C6.65767 14.1604 6.51069 14.2203 6.35776 14.2196C6.20483 14.219 6.05834 14.158 5.95019 14.0499C5.84204 13.9418 5.78099 13.7953 5.78035 13.6424C5.77971 13.4894 5.83953 13.3425 5.94677 13.2334L9.1802 10L5.94677 6.76657C5.89222 6.71289 5.84885 6.64895 5.81914 6.57842C5.78943 6.5079 5.77398 6.43219 5.77368 6.35567C5.77337 6.27914 5.78822 6.20331 5.81737 6.13256C5.84652 6.0618 5.88939 5.99752 5.94351 5.94341C5.99763 5.8893 6.06193 5.84645 6.13269 5.81732C6.20345 5.78818 6.27928 5.77335 6.35581 5.77367C6.43233 5.77399 6.50804 5.78946 6.57856 5.81918C6.64907 5.84891 6.71301 5.8923 6.76667 5.94686L10 9.18019L13.2333 5.94686C13.3423 5.83959 13.4893 5.77974 13.6422 5.78035C13.7952 5.78095 13.9417 5.84196 14.0498 5.95009C14.158 6.05821 14.219 6.20469 14.2197 6.35762C14.2203 6.51055 14.1605 6.65754 14.0532 6.76657L10.8198 10L14.0532 13.2334Z" fill="#2E3131"/>
</svg>
