<svg width="47" height="45" viewBox="0 0 47 45" fill="none" xmlns="http://www.w3.org/2000/svg">
<path d="M34.1143 19.4316C36.2961 17.6862 36.8052 14.5589 35.3507 12.1589C33.8961 9.75892 30.9143 8.81346 28.3689 9.83164L24.2961 2.99528C23.3507 1.39528 21.3143 0.886188 19.7143 1.83164C18.9143 2.26801 18.4052 2.99528 18.1871 3.86801C17.9689 4.74073 18.1143 5.61346 18.5507 6.41346L17.8234 7.94073C15.4234 12.8135 13.8234 15.868 11.0598 18.9226L17.8234 30.6316C21.8234 29.5407 25.0961 29.6135 30.3325 29.6862C30.9871 29.6862 31.6416 29.6862 32.3689 29.6862C33.0234 30.7771 34.1143 31.3589 35.278 31.3589C35.8598 31.3589 36.4416 31.2135 37.0234 30.9226C37.8234 30.4862 38.3325 29.7589 38.5507 28.8862C38.7689 28.0135 38.6234 27.1407 38.1871 26.3407L34.1143 19.4316Z" fill="#F45369"/>
<path d="M15.8601 31.5773L16.5147 31.2136L16.2965 30.7773L10.1147 20.0863L9.9692 19.8682L3.5692 23.7227C2.91466 24.0863 2.47829 24.7409 2.26011 25.4682C2.18738 26.05 2.18738 26.5591 2.33284 27.0682L1.02375 27.8682C0.00556408 28.45 -0.285345 29.7591 0.296473 30.7773L2.55102 34.5591C2.98738 35.1409 3.64193 35.5045 4.3692 35.5045C4.73284 35.5045 5.09647 35.4318 5.46011 35.2136L6.7692 34.4136C7.27829 34.9954 8.00556 35.3591 8.80556 35.3591C9.24193 35.3591 9.67829 35.2863 10.0419 35.0682L14.6965 42.9227C15.1328 43.7227 15.8601 44.2318 16.8056 44.45C17.0965 44.5227 17.3874 44.5227 17.6783 44.5227C18.2601 44.5227 18.8419 44.3773 19.4237 44.0863C20.2237 43.65 20.7328 42.85 20.951 41.9773C21.1692 41.1045 21.0237 40.1591 20.5874 39.4318L15.8601 31.5773Z" fill="#F45369"/>
<path d="M34.6239 7.35939C34.6966 7.35939 34.7694 7.35939 34.7694 7.35939C35.133 7.35939 35.4239 7.14121 35.4966 6.77757L37.0239 0.886662C37.0966 0.523025 36.8785 0.0866619 36.5148 0.0139347C36.1512 -0.0587926 35.7148 0.159389 35.6421 0.523025L34.1148 6.41393C33.9694 6.8503 34.1875 7.28666 34.6239 7.35939Z" fill="#F45369"/>
<path d="M36.7329 11.3589C36.8783 11.5771 37.0965 11.7225 37.3874 11.7225C37.5329 11.7225 37.6056 11.7225 37.7511 11.6498L42.4056 8.88616C42.7693 8.66798 42.842 8.23162 42.6238 7.86798C42.4056 7.50434 41.9693 7.43162 41.6056 7.57707L36.9511 10.3407C36.6602 10.5589 36.5147 10.9953 36.7329 11.3589Z" fill="#F45369"/>
<path d="M45.9694 16.0866L40.0785 14.6321C39.7149 14.5594 39.2785 14.7776 39.2058 15.1412C39.133 15.5048 39.3512 15.9412 39.7149 16.0139L45.6058 17.4685C45.6785 17.4685 45.7512 17.4685 45.7512 17.4685C46.1149 17.4685 46.4058 17.2503 46.4785 16.8866C46.624 16.523 46.4058 16.1594 45.9694 16.0866Z" fill="#F45369"/>
</svg>
