<svg width="40" height="42" viewBox="0 0 40 42" fill="none" xmlns="http://www.w3.org/2000/svg">
<path d="M14.5005 8.77563H25.5654L26.5768 7.3325C27.403 6.08719 28.3131 4.89438 29.1006 3.62387C29.4744 3.02033 30.175 2.03248 29.899 1.26807C29.7021 0.722068 29.1981 0.536006 28.6579 0.441085C28.2673 0.372625 26.2706 -0.131799 25.4646 0.0328421C24.7494 0.179423 24.0887 0.518786 23.4024 0.757348C22.436 1.09335 21.3663 1.37517 20.3062 1.31721C19.3901 1.26723 18.3494 1.15005 17.4858 0.837988C16.7702 0.578846 16.0788 0.197483 15.3216 0.0677024C14.6676 -0.0444385 12.2858 0.285684 11.8066 0.368005C8.43351 0.948449 10.8859 3.51509 13.4891 7.3325L14.5005 8.77563ZM38.8783 29.0118C36.0416 22.4757 30.9054 15.3483 25.5247 11.9097H14.361C8.98161 15.3491 3.84623 22.477 1.01037 29.0118C-1.83305 35.563 1.5778 42 8.07693 42H31.8117C38.3109 42 41.7217 35.563 38.8783 29.0118Z" fill="#F45369"/>
<g clip-path="url(#clip0)">
<path d="M13.1089 29.853C13.1089 28.7212 13.2857 27.7015 13.6394 26.7937C13.9931 25.8859 14.5767 25.1549 15.3901 24.6008C16.2154 24.0467 17.3354 23.7402 18.7501 23.6812V20.2682H21.1552V23.6812C22.5935 23.7402 23.7194 24.0231 24.5329 24.5301C25.3464 25.0252 25.9181 25.7208 26.2483 26.6168C26.5901 27.501 26.7611 28.568 26.7611 29.8177V32.8947H24.2499V29.853C24.2499 29.0396 24.1851 28.3852 24.0554 27.8901C23.9257 27.3831 23.7312 26.9882 23.4718 26.7052C23.2243 26.4223 22.9059 26.2219 22.5169 26.104C22.1278 25.9743 21.6739 25.8859 21.1552 25.8387V29.8884H18.7501V25.8387C18.2668 25.8859 17.8306 25.9684 17.4415 26.0863C17.0643 26.2042 16.74 26.4046 16.4689 26.6876C16.1977 26.9587 15.9855 27.3478 15.8323 27.8547C15.6908 28.3499 15.62 29.0042 15.62 29.8177V32.8947H13.1089V29.853Z" fill="white"/>
</g>
<defs>
<clipPath id="clip0">
<rect width="14" height="12.8947" fill="white" transform="translate(12.9438 20)"/>
</clipPath>
</defs>
</svg>
